# xmcd CD database file
#
# Track frame offsets:
#	150
#	17704
#	30997
#	45315
#	62547
#	75811
#	89946
#	104354
#	118664
#	134115
#	152089
#	166917
#	182044
#	196240
#	210400
#
# Disc length: 3035 seconds
#
# Revision: 1
# Processed by: cddbd v1.5.2PL0 Copyright (c) Steve Scherf et al.
# Submitted via: jetAudio 7
#
DISCID=bc0bd90f
DTITLE=Jader and Javan - Jader and Javan
DYEAR=1900
DGENRE=Country
TTITLE0=Pé de Cana
TTITLE1=Chilique Nela
TTITLE2=Tá Chique Tá Beleza
TTITLE3=Nova Manhã
TTITLE4=To Velho Mais To Na Moda
TTITLE5=Coração Trincado
TTITLE6=Seu Presente
TTITLE7=O Trem tá Quente
TTITLE8=O Mineiro e o Italiano
TTITLE9=O Tempo
TTITLE10=Queimei a Paia
TTITLE11=Comer batom
TTITLE12=Cheirinho de Mulher
TTITLE13=Choramingando
TTITLE14=Fúria de Desejo
EXTD=
EXTT0=
EXTT1=
EXTT2=
EXTT3=
EXTT4=
EXTT5=
EXTT6=
EXTT7=
EXTT8=
EXTT9=
EXTT10=
EXTT11=
EXTT12=
EXTT13=
EXTT14=
PLAYORDER=
